<svg xmlns="http://www.w3.org/2000/svg" xmlns:xlink="http://www.w3.org/1999/xlink" xmlns:lucid="lucid" width="506.2" height="603.99"><g transform="translate(-46.2890354898573 178.56568635446655)" lucid:page-tab-id="0_0"><path d="M73.1 166.53a10.35 10.35 0 0 1 0-10.38l33.98-58.62a10.4 10.4 0 0 1 9-5.2h68a10.4 10.4 0 0 1 9.02 5.2l33.98 58.62a10.35 10.35 0 0 1 0 10.38l-33.98 58.62a10.4 10.4 0 0 1-9 5.2h-68a10.4 10.4 0 0 1-9.02-5.2z" stroke="#282c33" stroke-width="2" fill="#ffdda6"/><use xlink:href="#a" transform="matrix(1,0,0,1,75.0910337044835,97.33662016973031) translate(49.758086419753084 41.77777777777778)"/><use xlink:href="#b" transform="matrix(1,0,0,1,75.0910337044835,97.33662016973031) translate(25.12845679012345 68.44444444444446)"/><use xlink:href="#c" transform="matrix(1,0,0,1,75.0910337044835,97.33662016973031) translate(27.011172839506163 95.11111111111111)"/><path d="M223 254.2a10.35 10.35 0 0 1 0-10.4l34-58.6a10.4 10.4 0 0 1 9-5.2h68a10.4 10.4 0 0 1 9 5.2l34 58.6a10.35 10.35 0 0 1 0 10.4l-34 58.6a10.4 10.4 0 0 1-9 5.2h-68a10.4 10.4 0 0 1-9-5.2z" stroke="#282c33" stroke-width="2" fill="#00326b"/><use xlink:href="#d" transform="matrix(1,0,0,1,225,185) translate(49.758086419753084 41.77777777777778)"/><use xlink:href="#e" transform="matrix(1,0,0,1,225,185) translate(25.12845679012345 68.44444444444446)"/><use xlink:href="#f" transform="matrix(1,0,0,1,225,185) translate(36.82598765432098 95.11111111111111)"/><path d="M225.38 2.2a10.35 10.35 0 0 1 0-10.4l33.98-58.6a10.4 10.4 0 0 1 9-5.2h68a10.4 10.4 0 0 1 9.02 5.2l33.98 58.6a10.35 10.35 0 0 1 0 10.4l-33.98 58.6a10.4 10.4 0 0 1-9 5.2h-68a10.4 10.4 0 0 1-9.02-5.2z" stroke="#282c33" stroke-width="2" fill="#00326b"/><use xlink:href="#g" transform="matrix(1,0,0,1,227.3665616862487,-67) translate(36.76425925925926 41.77777777777778)"/><use xlink:href="#h" transform="matrix(1,0,0,1,227.3665616862487,-67) translate(36.795123456790115 68.44444444444446)"/><use xlink:href="#i" transform="matrix(1,0,0,1,227.3665616862487,-67) translate(36.82598765432098 95.11111111111111)"/><path d="M250.5 200.4l1.72 20.98-19.48 9.3 17.75-30.3z" stroke="#e81313" stroke-width="2" fill="#e81313"/><path d="M195.96 234.67a6 6 0 0 1-2.16-8.2l34.34-58.92a6 6 0 0 1 8.2-2.16l17.78 10.35a6 6 0 0 1 2.16 8.2l-34.33 58.92a6 6 0 0 1-8.2 2.16z" stroke="#282c33" fill="#0059be"/><use xlink:href="#j" transform="matrix(0.5035249710134325,-0.8639806731437468,0.8639806731437468,0.5035249710134325,197.61690391462162,229.84469765618036) translate(1.7222222222222427 8.548611111111107)"/><use xlink:href="#k" transform="matrix(0.5035249710134325,-0.8639806731437468,0.8639806731437468,0.5035249710134325,197.61690391462162,229.84469765618036) translate(25.919753086419753 8.548611111111107)"/><use xlink:href="#l" transform="matrix(0.5035249710134325,-0.8639806731437468,0.8639806731437468,0.5035249710134325,197.61690391462162,229.84469765618036) translate(20.216049382716058 19.215277777777764)"/><path d="M259.12 153.42a6 6 0 0 1 6-6h74.5a6 6 0 0 1 6 6V174a6 6 0 0 1-6 6h-74.5a6 6 0 0 1-6-6z" stroke="#282c33" fill="#00326b"/><use xlink:href="#m" transform="matrix(1,0,0,1,264.11796531162094,152.41955138151653) translate(5.646495555555575 8.264202222222218)"/><use xlink:href="#n" transform="matrix(1,0,0,1,264.11796531162094,152.41955138151653) translate(40.159267901234564 8.264202222222218)"/><use xlink:href="#o" transform="matrix(1,0,0,1,264.11796531162094,152.41955138151653) translate(26.683642160493832 18.504255555555545)"/><path d="M85.28 106.5l1.8 20.98-19.42 9.4 17.62-30.4z" stroke="#e81313" stroke-width="2" fill="#e81313"/><path d="M283.35 194.34l17.24-12.1 17.87 12.1h-35.12z" stroke="#fcce14" stroke-width="2" fill="#fcce14"/><path d="M345 323.85a6 6 0 0 1-2.18-8.2l37.33-64.47a6 6 0 0 1 8.2-2.2l17.8 10.32a6 6 0 0 1 2.2 8.2L371 331.97a6 6 0 0 1-8.2 2.2z" stroke="#282c33" fill="#00326b"/><use xlink:href="#p" transform="matrix(0.5010729822781158,-0.8654050302782593,0.8654050302782593,0.5010729822781158,346.6449804493982,319.0175108711775) translate(17.936929938271618 8.264202222222218)"/><use xlink:href="#q" transform="matrix(0.5010729822781158,-0.8654050302782593,0.8654050302782593,0.5010729822781158,346.6449804493982,319.0175108711775) translate(21.219910000000013 18.504255555555545)"/><path d="M373.25 340.6a10.35 10.35 0 0 1 0-10.37l34-58.62a10.4 10.4 0 0 1 9-5.18h68a10.4 10.4 0 0 1 9 5.2l34 58.6a10.35 10.35 0 0 1 0 10.4l-34 58.6a10.4 10.4 0 0 1-9 5.2h-68a10.4 10.4 0 0 1-9-5.2z" stroke="#282c33" stroke-width="2" fill="#e3fae3"/><use xlink:href="#r" transform="matrix(1,0,0,1,375.2444662852846,271.42057605780303) translate(46.02351851851852 53.77777777777778)"/><use xlink:href="#s" transform="matrix(1,0,0,1,375.2444662852846,271.42057605780303) translate(9.079074074074066 80.44444444444446)"/><path d="M288 64.1L305.24 52l17.88 12.1H288z" stroke="#e81313" stroke-width="2" fill="#e81313"/><path d="M265.43 72a6 6 0 0 1 6-6h68.19a6 6 0 0 1 6 6v20.58a6 6 0 0 1-6 6h-68.2a6 6 0 0 1-6-6z" stroke="#282c33" fill="#0059be"/><use xlink:href="#j" transform="matrix(1,0,0,1,270.42701694636224,71.00000000000001) translate(7.154320987654344 8.548611111111107)"/><use xlink:href="#t" transform="matrix(1,0,0,1,270.42701694636224,71.00000000000001) translate(31.351851851851855 8.548611111111107)"/><use xlink:href="#l" transform="matrix(1,0,0,1,270.42701694636224,71.00000000000001) translate(20.216049382716058 19.215277777777764)"/><path d="M302.84 146.42h-.95v-11.37h.94zm0-24.7h-.95v-6.26h.94z" stroke="#3a414a" stroke-width=".05" fill="#3a414a"/><path d="M302.84 146.92h-.95v-.5h.94z" fill="#3a414a"/><path stroke="#3a414a" stroke-width=".05" fill="#3a414a"/><path d="M307 114.96h-9.27l4.64-14.26z" fill="#3a414a"/><path d="M307.66 115.44h-10.58l5.3-16.28zm-9.28-.95h7.97l-3.98-12.26z" stroke="#3a414a" stroke-width=".05" fill="#3a414a"/><g><use xlink:href="#u" transform="matrix(1,0,0,1,257.0424877144888,121.71621651583924) translate(0 8.888888888888888)"/><use xlink:href="#v" transform="matrix(1,0,0,1,257.0424877144888,121.71621651583924) translate(18.518518518518515 8.888888888888888)"/><use xlink:href="#w" transform="matrix(1,0,0,1,257.0424877144888,121.71621651583924) translate(58.6111111111111 8.888888888888888)"/></g><path d="M375.5 84.4a10.35 10.35 0 0 1 0-10.4l33.98-58.6a10.4 10.4 0 0 1 9-5.2h68a10.4 10.4 0 0 1 9 5.2l34 58.6a10.35 10.35 0 0 1 0 10.4l-34 58.6a10.4 10.4 0 0 1-9 5.2h-68a10.4 10.4 0 0 1-9-5.2z" stroke="#282c33" stroke-width="2" fill="#e3fae3"/><g><use xlink:href="#x" transform="matrix(1,0,0,1,377.4862471607766,15.203703327982481) translate(22.62845679012346 41.77777777777778)"/><use xlink:href="#y" transform="matrix(1,0,0,1,377.4862471607766,15.203703327982481) translate(47.31981481481482 41.77777777777778)"/><use xlink:href="#z" transform="matrix(1,0,0,1,377.4862471607766,15.203703327982481) translate(36.76425925925926 68.44444444444446)"/><use xlink:href="#A" transform="matrix(1,0,0,1,377.4862471607766,15.203703327982481) translate(27.505 95.11111111111111)"/></g><g><path d="M350.68 66.6a6 6 0 0 1-2.2-8.2L382.05.38a6 6 0 0 1 8.2-2.18l15.46 8.94a6 6 0 0 1 2.2 8.2l-33.56 58a6 6 0 0 1-8.2 2.2z" stroke="#282c33" fill="#00326b"/></g><g><use xlink:href="#B" transform="matrix(0.5006727533404657,-0.8656366408964429,0.8656366408964429,0.5006727533404657,352.3161359988392,61.770164987224916) translate(18.928805185185198 8.076702222222218)"/><use xlink:href="#C" transform="matrix(0.5006727533404657,-0.8656366408964429,0.8656366408964429,0.5006727533404657,352.3161359988392,61.770164987224916) translate(12.77766203703705 18.316755555555545)"/></g><g><path d="M359.68 8.2l.73 21.06-19.9 8.38L359.7 8.2z" stroke="#fcce14" stroke-width="2" fill="#fcce14"/></g><g><path d="M355.05 262.82l1.68 21-19.5 9.26 17.82-30.26z" stroke="#fcce14" stroke-width="2" fill="#fcce14"/></g><path d="M74.48-83.38a10.35 10.35 0 0 1 0-10.38l33.98-58.6a10.4 10.4 0 0 1 9-5.2h68a10.4 10.4 0 0 1 9.02 5.2l33.98 58.6a10.35 10.35 0 0 1 0 10.4l-33.98 58.6a10.4 10.4 0 0 1-9 5.2h-68a10.4 10.4 0 0 1-9.02-5.2z" stroke="#282c33" stroke-width="2" fill="#ffdda6"/><g><use xlink:href="#D" transform="matrix(1,0,0,1,76.46695483387073,-152.56568635446655) translate(36.76425925925926 41.77777777777778)"/><use xlink:href="#E" transform="matrix(1,0,0,1,76.46695483387073,-152.56568635446655) translate(36.795123456790115 68.44444444444446)"/><use xlink:href="#c" transform="matrix(1,0,0,1,76.46695483387073,-152.56568635446655) translate(27.011172839506163 95.11111111111111)"/></g><g><path d="M197.56-16.08a6 6 0 0 1-2.15-8.2l34.43-58.87a6 6 0 0 1 8.2-2.15l17.77 10.4a6 6 0 0 1 2.15 8.2L223.53-7.85a6 6 0 0 1-8.2 2.15z" stroke="#282c33" fill="#0059be"/></g><g><use xlink:href="#j" transform="matrix(0.5047619594414948,-0.8632585732564622,0.8632585732564622,0.5047619594414948,199.22092730877281,-20.899808260035485) translate(7.154320987654344 8.548611111111107)"/><use xlink:href="#t" transform="matrix(0.5047619594414948,-0.8632585732564622,0.8632585732564622,0.5047619594414948,199.22092730877281,-20.899808260035485) translate(31.351851851851855 8.548611111111107)"/><use xlink:href="#l" transform="matrix(0.5047619594414948,-0.8632585732564622,0.8632585732564622,0.5047619594414948,199.22092730877281,-20.899808260035485) translate(20.216049382716058 19.215277777777764)"/></g><g><path d="M254.06-53.07l1.73 21-19.48 9.3 17.74-30.3z" stroke="#e81313" stroke-width="2" fill="#e81313"/></g><g><path d="M88.26-146.5l1.82 20.98-19.44 9.4 17.62-30.38z" stroke="#e81313" stroke-width="2" fill="#e81313"/></g><defs><path fill="#3a414a" d="M30-248c87 1 191-15 191 75 0 78-77 80-158 76V0H30v-248zm33 125c57 0 124 11 124-50 0-59-68-47-124-48v98" id="F"/><path fill="#3a414a" d="M114-163C36-179 61-72 57 0H25l-1-190h30c1 12-1 29 2 39 6-27 23-49 58-41v29" id="G"/><path fill="#3a414a" d="M24-231v-30h32v30H24zM24 0v-190h32V0H24" id="H"/><path fill="#3a414a" d="M96-169c-40 0-48 33-48 73s9 75 48 75c24 0 41-14 43-38l32 2c-6 37-31 61-74 61-59 0-76-41-82-99-10-93 101-131 147-64 4 7 5 14 7 22l-32 3c-4-21-16-35-41-35" id="I"/><path fill="#3a414a" d="M100-194c63 0 86 42 84 106H49c0 40 14 67 53 68 26 1 43-12 49-29l28 8c-11 28-37 45-77 45C44 4 14-33 15-96c1-61 26-98 85-98zm52 81c6-60-76-77-97-28-3 7-6 17-6 28h103" id="J"/><g id="a"><use transform="matrix(0.06172839506172839,0,0,0.06172839506172839,0,0)" xlink:href="#F"/><use transform="matrix(0.06172839506172839,0,0,0.06172839506172839,14.814814814814813,0)" xlink:href="#G"/><use transform="matrix(0.06172839506172839,0,0,0.06172839506172839,22.160493827160494,0)" xlink:href="#H"/><use transform="matrix(0.06172839506172839,0,0,0.06172839506172839,27.037037037037038,0)" xlink:href="#I"/><use transform="matrix(0.06172839506172839,0,0,0.06172839506172839,38.14814814814815,0)" xlink:href="#J"/></g><path fill="#3a414a" d="M212-179c-10-28-35-45-73-45-59 0-87 40-87 99 0 60 29 101 89 101 43 0 62-24 78-52l27 14C228-24 195 4 139 4 59 4 22-46 18-125c-6-104 99-153 187-111 19 9 31 26 39 46" id="K"/><path fill="#3a414a" d="M141-36C126-15 110 5 73 4 37 3 15-17 15-53c-1-64 63-63 125-63 3-35-9-54-41-54-24 1-41 7-42 31l-33-3c5-37 33-52 76-52 45 0 72 20 72 64v82c-1 20 7 32 28 27v20c-31 9-61-2-59-35zM48-53c0 20 12 33 32 33 41-3 63-29 60-74-43 2-92-5-92 41" id="L"/><path fill="#3a414a" d="M24 0v-261h32V0H24" id="M"/><path fill="#3a414a" d="M84 4C-5 8 30-112 23-190h32v120c0 31 7 50 39 49 72-2 45-101 50-169h31l1 190h-30c-1-10 1-25-2-33-11 22-28 36-60 37" id="N"/><path fill="#3a414a" d="M59-47c-2 24 18 29 38 22v24C64 9 27 4 27-40v-127H5v-23h24l9-43h21v43h35v23H59v120" id="O"/><path fill="#3a414a" d="M100-194c62-1 85 37 85 99 1 63-27 99-86 99S16-35 15-95c0-66 28-99 85-99zM99-20c44 1 53-31 53-75 0-43-8-75-51-75s-53 32-53 75 10 74 51 75" id="P"/><g id="b"><use transform="matrix(0.06172839506172839,0,0,0.06172839506172839,0,0)" xlink:href="#K"/><use transform="matrix(0.06172839506172839,0,0,0.06172839506172839,15.987654320987653,0)" xlink:href="#L"/><use transform="matrix(0.06172839506172839,0,0,0.06172839506172839,28.333333333333332,0)" xlink:href="#M"/><use transform="matrix(0.06172839506172839,0,0,0.06172839506172839,33.20987654320987,0)" xlink:href="#I"/><use transform="matrix(0.06172839506172839,0,0,0.06172839506172839,44.32098765432099,0)" xlink:href="#N"/><use transform="matrix(0.06172839506172839,0,0,0.06172839506172839,56.666666666666664,0)" xlink:href="#M"/><use transform="matrix(0.06172839506172839,0,0,0.06172839506172839,61.54320987654321,0)" xlink:href="#L"/><use transform="matrix(0.06172839506172839,0,0,0.06172839506172839,73.88888888888889,0)" xlink:href="#O"/><use transform="matrix(0.06172839506172839,0,0,0.06172839506172839,80.06172839506172,0)" xlink:href="#P"/><use transform="matrix(0.06172839506172839,0,0,0.06172839506172839,92.4074074074074,0)" xlink:href="#G"/></g><path fill="#3a414a" d="M117-194c89-4 53 116 60 194h-32v-121c0-31-8-49-39-48C34-167 62-67 57 0H25l-1-190h30c1 10-1 24 2 32 11-22 29-35 61-36" id="Q"/><g id="c"><use transform="matrix(0.06172839506172839,0,0,0.06172839506172839,0,0)" xlink:href="#K"/><use transform="matrix(0.06172839506172839,0,0,0.06172839506172839,15.987654320987653,0)" xlink:href="#P"/><use transform="matrix(0.06172839506172839,0,0,0.06172839506172839,28.333333333333332,0)" xlink:href="#Q"/><use transform="matrix(0.06172839506172839,0,0,0.06172839506172839,40.67901234567901,0)" xlink:href="#O"/><use transform="matrix(0.06172839506172839,0,0,0.06172839506172839,46.851851851851855,0)" xlink:href="#G"/><use transform="matrix(0.06172839506172839,0,0,0.06172839506172839,54.19753086419753,0)" xlink:href="#P"/><use transform="matrix(0.06172839506172839,0,0,0.06172839506172839,66.54320987654322,0)" xlink:href="#M"/><use transform="matrix(0.06172839506172839,0,0,0.06172839506172839,71.41975308641976,0)" xlink:href="#M"/><use transform="matrix(0.06172839506172839,0,0,0.06172839506172839,76.2962962962963,0)" xlink:href="#J"/><use transform="matrix(0.06172839506172839,0,0,0.06172839506172839,88.64197530864199,0)" xlink:href="#G"/></g><path fill="#fff" d="M30-248c87 1 191-15 191 75 0 78-77 80-158 76V0H30v-248zm33 125c57 0 124 11 124-50 0-59-68-47-124-48v98" id="R"/><path fill="#fff" d="M114-163C36-179 61-72 57 0H25l-1-190h30c1 12-1 29 2 39 6-27 23-49 58-41v29" id="S"/><path fill="#fff" d="M24-231v-30h32v30H24zM24 0v-190h32V0H24" id="T"/><path fill="#fff" d="M96-169c-40 0-48 33-48 73s9 75 48 75c24 0 41-14 43-38l32 2c-6 37-31 61-74 61-59 0-76-41-82-99-10-93 101-131 147-64 4 7 5 14 7 22l-32 3c-4-21-16-35-41-35" id="U"/><path fill="#fff" d="M100-194c63 0 86 42 84 106H49c0 40 14 67 53 68 26 1 43-12 49-29l28 8c-11 28-37 45-77 45C44 4 14-33 15-96c1-61 26-98 85-98zm52 81c6-60-76-77-97-28-3 7-6 17-6 28h103" id="V"/><g id="d"><use transform="matrix(0.06172839506172839,0,0,0.06172839506172839,0,0)" xlink:href="#R"/><use transform="matrix(0.06172839506172839,0,0,0.06172839506172839,14.814814814814813,0)" xlink:href="#S"/><use transform="matrix(0.06172839506172839,0,0,0.06172839506172839,22.160493827160494,0)" xlink:href="#T"/><use transform="matrix(0.06172839506172839,0,0,0.06172839506172839,27.037037037037038,0)" xlink:href="#U"/><use transform="matrix(0.06172839506172839,0,0,0.06172839506172839,38.14814814814815,0)" xlink:href="#V"/></g><path fill="#fff" d="M212-179c-10-28-35-45-73-45-59 0-87 40-87 99 0 60 29 101 89 101 43 0 62-24 78-52l27 14C228-24 195 4 139 4 59 4 22-46 18-125c-6-104 99-153 187-111 19 9 31 26 39 46" id="W"/><path fill="#fff" d="M141-36C126-15 110 5 73 4 37 3 15-17 15-53c-1-64 63-63 125-63 3-35-9-54-41-54-24 1-41 7-42 31l-33-3c5-37 33-52 76-52 45 0 72 20 72 64v82c-1 20 7 32 28 27v20c-31 9-61-2-59-35zM48-53c0 20 12 33 32 33 41-3 63-29 60-74-43 2-92-5-92 41" id="X"/><path fill="#fff" d="M24 0v-261h32V0H24" id="Y"/><path fill="#fff" d="M84 4C-5 8 30-112 23-190h32v120c0 31 7 50 39 49 72-2 45-101 50-169h31l1 190h-30c-1-10 1-25-2-33-11 22-28 36-60 37" id="Z"/><path fill="#fff" d="M59-47c-2 24 18 29 38 22v24C64 9 27 4 27-40v-127H5v-23h24l9-43h21v43h35v23H59v120" id="aa"/><path fill="#fff" d="M100-194c62-1 85 37 85 99 1 63-27 99-86 99S16-35 15-95c0-66 28-99 85-99zM99-20c44 1 53-31 53-75 0-43-8-75-51-75s-53 32-53 75 10 74 51 75" id="ab"/><g id="e"><use transform="matrix(0.06172839506172839,0,0,0.06172839506172839,0,0)" xlink:href="#W"/><use transform="matrix(0.06172839506172839,0,0,0.06172839506172839,15.987654320987653,0)" xlink:href="#X"/><use transform="matrix(0.06172839506172839,0,0,0.06172839506172839,28.333333333333332,0)" xlink:href="#Y"/><use transform="matrix(0.06172839506172839,0,0,0.06172839506172839,33.20987654320987,0)" xlink:href="#U"/><use transform="matrix(0.06172839506172839,0,0,0.06172839506172839,44.32098765432099,0)" xlink:href="#Z"/><use transform="matrix(0.06172839506172839,0,0,0.06172839506172839,56.666666666666664,0)" xlink:href="#Y"/><use transform="matrix(0.06172839506172839,0,0,0.06172839506172839,61.54320987654321,0)" xlink:href="#X"/><use transform="matrix(0.06172839506172839,0,0,0.06172839506172839,73.88888888888889,0)" xlink:href="#aa"/><use transform="matrix(0.06172839506172839,0,0,0.06172839506172839,80.06172839506172,0)" xlink:href="#ab"/><use transform="matrix(0.06172839506172839,0,0,0.06172839506172839,92.4074074074074,0)" xlink:href="#S"/></g><path fill="#fff" d="M30-248c118-7 216 8 213 122C240-48 200 0 122 0H30v-248zM63-27c89 8 146-16 146-99s-60-101-146-95v194" id="ac"/><path fill="#fff" d="M210-169c-67 3-38 105-44 169h-31v-121c0-29-5-50-35-48C34-165 62-65 56 0H25l-1-190h30c1 10-1 24 2 32 10-44 99-50 107 0 11-21 27-35 58-36 85-2 47 119 55 194h-31v-121c0-29-5-49-35-48" id="ad"/><path fill="#fff" d="M117-194c89-4 53 116 60 194h-32v-121c0-31-8-49-39-48C34-167 62-67 57 0H25l-1-190h30c1 10-1 24 2 32 11-22 29-35 61-36" id="ae"/><g id="f"><use transform="matrix(0.06172839506172839,0,0,0.06172839506172839,0,0)" xlink:href="#ac"/><use transform="matrix(0.06172839506172839,0,0,0.06172839506172839,15.987654320987653,0)" xlink:href="#ab"/><use transform="matrix(0.06172839506172839,0,0,0.06172839506172839,28.333333333333332,0)" xlink:href="#ad"/><use transform="matrix(0.06172839506172839,0,0,0.06172839506172839,46.79012345679012,0)" xlink:href="#X"/><use transform="matrix(0.06172839506172839,0,0,0.06172839506172839,59.1358024691358,0)" xlink:href="#T"/><use transform="matrix(0.06172839506172839,0,0,0.06172839506172839,64.01234567901234,0)" xlink:href="#ae"/></g><path fill="#fff" d="M85-194c31 0 48 13 60 33l-1-100h32l1 261h-30c-2-10 0-23-3-31C134-8 116 4 85 4 32 4 16-35 15-94c0-66 23-100 70-100zm9 24c-40 0-46 34-46 75 0 40 6 74 45 74 42 0 51-32 51-76 0-42-9-74-50-73" id="af"/><g id="g"><use transform="matrix(0.06172839506172839,0,0,0.06172839506172839,0,0)" xlink:href="#R"/><use transform="matrix(0.06172839506172839,0,0,0.06172839506172839,14.814814814814813,0)" xlink:href="#S"/><use transform="matrix(0.06172839506172839,0,0,0.06172839506172839,22.160493827160494,0)" xlink:href="#ab"/><use transform="matrix(0.06172839506172839,0,0,0.06172839506172839,34.50617283950617,0)" xlink:href="#af"/><use transform="matrix(0.06172839506172839,0,0,0.06172839506172839,46.85185185185185,0)" xlink:href="#Z"/><use transform="matrix(0.06172839506172839,0,0,0.06172839506172839,59.197530864197525,0)" xlink:href="#U"/><use transform="matrix(0.06172839506172839,0,0,0.06172839506172839,70.30864197530863,0)" xlink:href="#aa"/></g><path fill="#fff" d="M177-190C167-65 218 103 67 71c-23-6-38-20-44-43l32-5c15 47 100 32 89-28v-30C133-14 115 1 83 1 29 1 15-40 15-95c0-56 16-97 71-98 29-1 48 16 59 35 1-10 0-23 2-32h30zM94-22c36 0 50-32 50-73 0-42-14-75-50-75-39 0-46 34-46 75s6 73 46 73" id="ag"/><g id="h"><use transform="matrix(0.06172839506172839,0,0,0.06172839506172839,0,0)" xlink:href="#W"/><use transform="matrix(0.06172839506172839,0,0,0.06172839506172839,15.987654320987653,0)" xlink:href="#X"/><use transform="matrix(0.06172839506172839,0,0,0.06172839506172839,28.333333333333332,0)" xlink:href="#aa"/><use transform="matrix(0.06172839506172839,0,0,0.06172839506172839,34.50617283950617,0)" xlink:href="#X"/><use transform="matrix(0.06172839506172839,0,0,0.06172839506172839,46.85185185185185,0)" xlink:href="#Y"/><use transform="matrix(0.06172839506172839,0,0,0.06172839506172839,51.72839506172839,0)" xlink:href="#ab"/><use transform="matrix(0.06172839506172839,0,0,0.06172839506172839,64.07407407407408,0)" xlink:href="#ag"/></g><g id="i"><use transform="matrix(0.06172839506172839,0,0,0.06172839506172839,0,0)" xlink:href="#ac"/><use transform="matrix(0.06172839506172839,0,0,0.06172839506172839,15.987654320987653,0)" xlink:href="#ab"/><use transform="matrix(0.06172839506172839,0,0,0.06172839506172839,28.333333333333332,0)" xlink:href="#ad"/><use transform="matrix(0.06172839506172839,0,0,0.06172839506172839,46.79012345679012,0)" xlink:href="#X"/><use transform="matrix(0.06172839506172839,0,0,0.06172839506172839,59.1358024691358,0)" xlink:href="#T"/><use transform="matrix(0.06172839506172839,0,0,0.06172839506172839,64.01234567901234,0)" xlink:href="#ae"/></g><path fill="#fff" d="M24-248c93 1 206-16 204 79-1 75-69 88-152 82V0H24v-248zm52 121c47 0 100 7 100-41 0-47-54-39-100-39v80" id="ah"/><path fill="#fff" d="M135-150c-39-12-60 13-60 57V0H25l-1-190h47c2 13-1 29 3 40 6-28 27-53 61-41v41" id="ai"/><path fill="#fff" d="M25-224v-37h50v37H25zM25 0v-190h50V0H25" id="aj"/><path fill="#fff" d="M190-63c-7 42-38 67-86 67-59 0-84-38-90-98-12-110 154-137 174-36l-49 2c-2-19-15-32-35-32-30 0-35 28-38 64-6 74 65 87 74 30" id="ak"/><path fill="#fff" d="M185-48c-13 30-37 53-82 52C43 2 14-33 14-96s30-98 90-98c62 0 83 45 84 108H66c0 31 8 55 39 56 18 0 30-7 34-22zm-45-69c5-46-57-63-70-21-2 6-4 13-4 21h74" id="al"/><g id="j"><use transform="matrix(0.02469135802469134,0,0,0.02469135802469134,0,0)" xlink:href="#ah"/><use transform="matrix(0.02469135802469134,0,0,0.02469135802469134,5.925925925925921,0)" xlink:href="#ai"/><use transform="matrix(0.02469135802469134,0,0,0.02469135802469134,9.382716049382708,0)" xlink:href="#aj"/><use transform="matrix(0.02469135802469134,0,0,0.02469135802469134,11.851851851851842,0)" xlink:href="#ak"/><use transform="matrix(0.02469135802469134,0,0,0.02469135802469134,16.79012345679011,0)" xlink:href="#al"/></g><path fill="#fff" d="M67-125c0 53 21 87 73 88 37 1 54-22 65-47l45 17C233-25 199 4 140 4 58 4 20-42 15-125 8-235 124-281 211-232c18 10 29 29 36 50l-46 12c-8-25-30-41-62-41-52 0-71 34-72 86" id="am"/><path fill="#fff" d="M133-34C117-15 103 5 69 4 32 3 11-16 11-54c-1-60 55-63 116-61 1-26-3-47-28-47-18 1-26 9-28 27l-52-2c7-38 36-58 82-57s74 22 75 68l1 82c-1 14 12 18 25 15v27c-30 8-71 5-69-32zm-48 3c29 0 43-24 42-57-32 0-66-3-65 30 0 17 8 27 23 27" id="an"/><path fill="#fff" d="M25 0v-261h50V0H25" id="ao"/><path fill="#fff" d="M85 4C-2 5 27-109 22-190h50c7 57-23 150 33 157 60-5 35-97 40-157h50l1 190h-47c-2-12 1-28-3-38-12 25-28 42-61 42" id="ap"/><path fill="#fff" d="M115-3C79 11 28 4 28-45v-112H4v-33h27l15-45h31v45h36v33H77v99c-1 23 16 31 38 25v30" id="aq"/><path fill="#fff" d="M110-194c64 0 96 36 96 99 0 64-35 99-97 99-61 0-95-36-95-99 0-62 34-99 96-99zm-1 164c35 0 45-28 45-65 0-40-10-65-43-65-34 0-45 26-45 65 0 36 10 65 43 65" id="ar"/><g id="k"><use transform="matrix(0.02469135802469134,0,0,0.02469135802469134,0,0)" xlink:href="#am"/><use transform="matrix(0.02469135802469134,0,0,0.02469135802469134,6.395061728395057,0)" xlink:href="#an"/><use transform="matrix(0.02469135802469134,0,0,0.02469135802469134,11.333333333333325,0)" xlink:href="#ao"/><use transform="matrix(0.02469135802469134,0,0,0.02469135802469134,13.80246913580246,0)" xlink:href="#ak"/><use transform="matrix(0.02469135802469134,0,0,0.02469135802469134,18.740740740740726,0)" xlink:href="#ap"/><use transform="matrix(0.02469135802469134,0,0,0.02469135802469134,24.14814814814813,0)" xlink:href="#ao"/><use transform="matrix(0.02469135802469134,0,0,0.02469135802469134,26.617283950617264,0)" xlink:href="#an"/><use transform="matrix(0.02469135802469134,0,0,0.02469135802469134,31.555555555555532,0)" xlink:href="#aq"/><use transform="matrix(0.02469135802469134,0,0,0.02469135802469134,34.4938271604938,0)" xlink:href="#ar"/><use transform="matrix(0.02469135802469134,0,0,0.02469135802469134,39.901234567901206,0)" xlink:href="#ai"/></g><path fill="#fff" d="M76-208v77h127v40H76V0H24v-248h183v40H76" id="as"/><path fill="#fff" d="M88-194c31-1 46 15 58 34l-1-101h50l1 261h-48c-2-10 0-23-3-31C134-8 116 4 84 4 32 4 16-41 15-95c0-56 19-97 73-99zm17 164c33 0 40-30 41-66 1-37-9-64-41-64s-38 30-39 65c0 43 13 65 39 65" id="at"/><g id="l"><use transform="matrix(0.02469135802469134,0,0,0.02469135802469134,0,0)" xlink:href="#as"/><use transform="matrix(0.02469135802469134,0,0,0.02469135802469134,5.407407407407403,0)" xlink:href="#an"/><use transform="matrix(0.02469135802469134,0,0,0.02469135802469134,10.34567901234567,0)" xlink:href="#ak"/><use transform="matrix(0.02469135802469134,0,0,0.02469135802469134,15.283950617283939,0)" xlink:href="#an"/><use transform="matrix(0.02469135802469134,0,0,0.02469135802469134,20.222222222222207,0)" xlink:href="#at"/><use transform="matrix(0.02469135802469134,0,0,0.02469135802469134,25.62962962962961,0)" xlink:href="#al"/></g><g id="m"><use transform="matrix(0.023703827160493813,0,0,0.023703827160493813,0,0)" xlink:href="#ah"/><use transform="matrix(0.023703827160493813,0,0,0.023703827160493813,5.688918518518515,0)" xlink:href="#ai"/><use transform="matrix(0.023703827160493813,0,0,0.023703827160493813,9.007454320987648,0)" xlink:href="#ar"/><use transform="matrix(0.023703827160493813,0,0,0.023703827160493813,14.198592469135795,0)" xlink:href="#at"/><use transform="matrix(0.023703827160493813,0,0,0.023703827160493813,19.389730617283938,0)" xlink:href="#ap"/><use transform="matrix(0.023703827160493813,0,0,0.023703827160493813,24.580868765432083,0)" xlink:href="#ak"/><use transform="matrix(0.023703827160493813,0,0,0.023703827160493813,29.321634197530848,0)" xlink:href="#aq"/></g><path fill="#fff" d="M195-6C206 82 75 100 31 46c-4-6-6-13-8-21l49-6c3 16 16 24 34 25 40 0 42-37 40-79-11 22-30 35-61 35-53 0-70-43-70-97 0-56 18-96 73-97 30 0 46 14 59 34l2-30h47zm-90-29c32 0 41-27 41-63 0-35-9-62-40-62-32 0-39 29-40 63 0 36 9 62 39 62" id="au"/><g id="n"><use transform="matrix(0.023703827160493813,0,0,0.023703827160493813,0,0)" xlink:href="#am"/><use transform="matrix(0.023703827160493813,0,0,0.023703827160493813,6.139291234567898,0)" xlink:href="#an"/><use transform="matrix(0.023703827160493813,0,0,0.023703827160493813,10.880056666666661,0)" xlink:href="#aq"/><use transform="matrix(0.023703827160493813,0,0,0.023703827160493813,13.700812098765423,0)" xlink:href="#an"/><use transform="matrix(0.023703827160493813,0,0,0.023703827160493813,18.441577530864187,0)" xlink:href="#ao"/><use transform="matrix(0.023703827160493813,0,0,0.023703827160493813,20.811960246913568,0)" xlink:href="#ar"/><use transform="matrix(0.023703827160493813,0,0,0.023703827160493813,26.003098395061713,0)" xlink:href="#au"/></g><path fill="#fff" d="M135-194c87-1 58 113 63 194h-50c-7-57 23-157-34-157-59 0-34 97-39 157H25l-1-190h47c2 12-1 28 3 38 12-26 28-41 61-42" id="av"/><g id="o"><use transform="matrix(0.023703827160493813,0,0,0.023703827160493813,0,0)" xlink:href="#am"/><use transform="matrix(0.023703827160493813,0,0,0.023703827160493813,6.139291234567898,0)" xlink:href="#ao"/><use transform="matrix(0.023703827160493813,0,0,0.023703827160493813,8.509673950617278,0)" xlink:href="#aj"/><use transform="matrix(0.023703827160493813,0,0,0.023703827160493813,10.88005666666666,0)" xlink:href="#al"/><use transform="matrix(0.023703827160493813,0,0,0.023703827160493813,15.620822098765423,0)" xlink:href="#av"/><use transform="matrix(0.023703827160493813,0,0,0.023703827160493813,20.811960246913568,0)" xlink:href="#aq"/></g><path fill="#fff" d="M24-248c120-7 223 5 221 122C244-46 201 0 124 0H24v-248zM76-40c74 7 117-18 117-86 0-67-45-88-117-82v168" id="aw"/><path fill="#fff" d="M137-138c1-29-70-34-71-4 15 46 118 7 119 86 1 83-164 76-172 9l43-7c4 19 20 25 44 25 33 8 57-30 24-41C81-84 22-81 20-136c-2-80 154-74 161-7" id="ax"/><g id="p"><use transform="matrix(0.023703827160493813,0,0,0.023703827160493813,0,0)" xlink:href="#aw"/><use transform="matrix(0.023703827160493813,0,0,0.023703827160493813,6.139291234567898,0)" xlink:href="#aj"/><use transform="matrix(0.023703827160493813,0,0,0.023703827160493813,8.509673950617278,0)" xlink:href="#ax"/><use transform="matrix(0.023703827160493813,0,0,0.023703827160493813,13.250439382716042,0)" xlink:href="#ak"/><use transform="matrix(0.023703827160493813,0,0,0.023703827160493813,17.991204814814804,0)" xlink:href="#ar"/><use transform="matrix(0.023703827160493813,0,0,0.023703827160493813,23.18234296296295,0)" xlink:href="#ap"/><use transform="matrix(0.023703827160493813,0,0,0.023703827160493813,28.373481111111094,0)" xlink:href="#av"/><use transform="matrix(0.023703827160493813,0,0,0.023703827160493813,33.56461925925924,0)" xlink:href="#aq"/><use transform="matrix(0.023703827160493813,0,0,0.023703827160493813,36.385374691358,0)" xlink:href="#ax"/></g><path fill="#fff" d="M128 0H69L1-190h53L99-40l48-150h52" id="ay"/><g id="q"><use transform="matrix(0.023703827160493813,0,0,0.023703827160493813,0,0)" xlink:href="#ah"/><use transform="matrix(0.023703827160493813,0,0,0.023703827160493813,5.688918518518515,0)" xlink:href="#ai"/><use transform="matrix(0.023703827160493813,0,0,0.023703827160493813,9.007454320987648,0)" xlink:href="#ar"/><use transform="matrix(0.023703827160493813,0,0,0.023703827160493813,14.198592469135795,0)" xlink:href="#ay"/><use transform="matrix(0.023703827160493813,0,0,0.023703827160493813,18.939357901234555,0)" xlink:href="#aj"/><use transform="matrix(0.023703827160493813,0,0,0.023703827160493813,21.309740617283936,0)" xlink:href="#at"/><use transform="matrix(0.023703827160493813,0,0,0.023703827160493813,26.500878765432084,0)" xlink:href="#al"/><use transform="matrix(0.023703827160493813,0,0,0.023703827160493813,31.24164419753084,0)" xlink:href="#ai"/></g><path fill="#3a414a" d="M137-103V0h-34v-103L8-248h37l75 118 75-118h37" id="az"/><path fill="#3a414a" d="M205 0l-28-72H64L36 0H1l101-248h38L239 0h-34zm-38-99l-47-123c-12 45-31 82-46 123h93" id="aA"/><path fill="#3a414a" d="M240 0l2-218c-23 76-54 145-80 218h-23L58-218 59 0H30v-248h44l77 211c21-75 51-140 76-211h43V0h-30" id="aB"/><path fill="#3a414a" d="M30 0v-248h33v221h125V0H30" id="aC"/><g id="r"><use transform="matrix(0.06172839506172839,0,0,0.06172839506172839,0,0)" xlink:href="#az"/><use transform="matrix(0.06172839506172839,0,0,0.06172839506172839,13.148148148148147,0)" xlink:href="#aA"/><use transform="matrix(0.06172839506172839,0,0,0.06172839506172839,27.962962962962962,0)" xlink:href="#aB"/><use transform="matrix(0.06172839506172839,0,0,0.06172839506172839,46.419753086419746,0)" xlink:href="#aC"/></g><path fill="#3a414a" d="M101-234c-31-9-42 10-38 44h38v23H63V0H32v-167H5v-23h27c-7-52 17-82 69-68v24" id="aD"/><path fill="#3a414a" d="M177-190C167-65 218 103 67 71c-23-6-38-20-44-43l32-5c15 47 100 32 89-28v-30C133-14 115 1 83 1 29 1 15-40 15-95c0-56 16-97 71-98 29-1 48 16 59 35 1-10 0-23 2-32h30zM94-22c36 0 50-32 50-73 0-42-14-75-50-75-39 0-46 34-46 75s6 73 46 73" id="aE"/><g id="s"><use transform="matrix(0.06172839506172839,0,0,0.06172839506172839,0,0)" xlink:href="#K"/><use transform="matrix(0.06172839506172839,0,0,0.06172839506172839,15.987654320987653,0)" xlink:href="#P"/><use transform="matrix(0.06172839506172839,0,0,0.06172839506172839,28.333333333333332,0)" xlink:href="#Q"/><use transform="matrix(0.06172839506172839,0,0,0.06172839506172839,40.67901234567901,0)" xlink:href="#aD"/><use transform="matrix(0.06172839506172839,0,0,0.06172839506172839,46.851851851851855,0)" xlink:href="#H"/><use transform="matrix(0.06172839506172839,0,0,0.06172839506172839,51.7283950617284,0)" xlink:href="#aE"/><use transform="matrix(0.06172839506172839,0,0,0.06172839506172839,64.07407407407408,0)" xlink:href="#N"/><use transform="matrix(0.06172839506172839,0,0,0.06172839506172839,76.41975308641976,0)" xlink:href="#G"/><use transform="matrix(0.06172839506172839,0,0,0.06172839506172839,83.76543209876544,0)" xlink:href="#L"/><use transform="matrix(0.06172839506172839,0,0,0.06172839506172839,96.11111111111113,0)" xlink:href="#O"/><use transform="matrix(0.06172839506172839,0,0,0.06172839506172839,102.28395061728396,0)" xlink:href="#H"/><use transform="matrix(0.06172839506172839,0,0,0.06172839506172839,107.16049382716051,0)" xlink:href="#P"/><use transform="matrix(0.06172839506172839,0,0,0.06172839506172839,119.50617283950619,0)" xlink:href="#Q"/></g><g id="t"><use transform="matrix(0.02469135802469134,0,0,0.02469135802469134,0,0)" xlink:href="#am"/><use transform="matrix(0.02469135802469134,0,0,0.02469135802469134,6.395061728395057,0)" xlink:href="#an"/><use transform="matrix(0.02469135802469134,0,0,0.02469135802469134,11.333333333333325,0)" xlink:href="#aq"/><use transform="matrix(0.02469135802469134,0,0,0.02469135802469134,14.271604938271594,0)" xlink:href="#an"/><use transform="matrix(0.02469135802469134,0,0,0.02469135802469134,19.209876543209862,0)" xlink:href="#ao"/><use transform="matrix(0.02469135802469134,0,0,0.02469135802469134,21.679012345678995,0)" xlink:href="#ar"/><use transform="matrix(0.02469135802469134,0,0,0.02469135802469134,27.086419753086393,0)" xlink:href="#au"/></g><path fill="#333" d="M177-190C167-65 218 103 67 71c-23-6-38-20-44-43l32-5c15 47 100 32 89-28v-30C133-14 115 1 83 1 29 1 15-40 15-95c0-56 16-97 71-98 29-1 48 16 59 35 1-10 0-23 2-32h30zM94-22c36 0 50-32 50-73 0-42-14-75-50-75-39 0-46 34-46 75s6 73 46 73" id="aF"/><path fill="#333" d="M100-194c63 0 86 42 84 106H49c0 40 14 67 53 68 26 1 43-12 49-29l28 8c-11 28-37 45-77 45C44 4 14-33 15-96c1-61 26-98 85-98zm52 81c6-60-76-77-97-28-3 7-6 17-6 28h103" id="aG"/><path fill="#333" d="M59-47c-2 24 18 29 38 22v24C64 9 27 4 27-40v-127H5v-23h24l9-43h21v43h35v23H59v120" id="aH"/><g id="u"><use transform="matrix(0.030864197530864192,0,0,0.030864197530864192,0,0)" xlink:href="#aF"/><use transform="matrix(0.030864197530864192,0,0,0.030864197530864192,6.1728395061728385,0)" xlink:href="#aG"/><use transform="matrix(0.030864197530864192,0,0,0.030864197530864192,12.345679012345677,0)" xlink:href="#aH"/></g><path fill="#333" d="M115-194c55 1 70 41 70 98S169 2 115 4C84 4 66-9 55-30l1 105H24l-1-265h31l2 30c10-21 28-34 59-34zm-8 174c40 0 45-34 45-75s-6-73-45-74c-42 0-51 32-51 76 0 43 10 73 51 73" id="aI"/><path fill="#333" d="M114-163C36-179 61-72 57 0H25l-1-190h30c1 12-1 29 2 39 6-27 23-49 58-41v29" id="aJ"/><path fill="#333" d="M100-194c62-1 85 37 85 99 1 63-27 99-86 99S16-35 15-95c0-66 28-99 85-99zM99-20c44 1 53-31 53-75 0-43-8-75-51-75s-53 32-53 75 10 74 51 75" id="aK"/><path fill="#333" d="M85-194c31 0 48 13 60 33l-1-100h32l1 261h-30c-2-10 0-23-3-31C134-8 116 4 85 4 32 4 16-35 15-94c0-66 23-100 70-100zm9 24c-40 0-46 34-46 75 0 40 6 74 45 74 42 0 51-32 51-76 0-42-9-74-50-73" id="aL"/><path fill="#333" d="M84 4C-5 8 30-112 23-190h32v120c0 31 7 50 39 49 72-2 45-101 50-169h31l1 190h-30c-1-10 1-25-2-33-11 22-28 36-60 37" id="aM"/><path fill="#333" d="M96-169c-40 0-48 33-48 73s9 75 48 75c24 0 41-14 43-38l32 2c-6 37-31 61-74 61-59 0-76-41-82-99-10-93 101-131 147-64 4 7 5 14 7 22l-32 3c-4-21-16-35-41-35" id="aN"/><g id="v"><use transform="matrix(0.030864197530864192,0,0,0.030864197530864192,0,0)" xlink:href="#aI"/><use transform="matrix(0.030864197530864192,0,0,0.030864197530864192,6.1728395061728385,0)" xlink:href="#aJ"/><use transform="matrix(0.030864197530864192,0,0,0.030864197530864192,9.845679012345677,0)" xlink:href="#aK"/><use transform="matrix(0.030864197530864192,0,0,0.030864197530864192,16.018518518518515,0)" xlink:href="#aL"/><use transform="matrix(0.030864197530864192,0,0,0.030864197530864192,22.191358024691354,0)" xlink:href="#aM"/><use transform="matrix(0.030864197530864192,0,0,0.030864197530864192,28.364197530864192,0)" xlink:href="#aN"/><use transform="matrix(0.030864197530864192,0,0,0.030864197530864192,33.919753086419746,0)" xlink:href="#aH"/></g><path fill="#333" d="M141-36C126-15 110 5 73 4 37 3 15-17 15-53c-1-64 63-63 125-63 3-35-9-54-41-54-24 1-41 7-42 31l-33-3c5-37 33-52 76-52 45 0 72 20 72 64v82c-1 20 7 32 28 27v20c-31 9-61-2-59-35zM48-53c0 20 12 33 32 33 41-3 63-29 60-74-43 2-92-5-92 41" id="aO"/><path fill="#333" d="M24-231v-30h32v30H24zM24 0v-190h32V0H24" id="aP"/><path fill="#333" d="M24 0v-261h32V0H24" id="aQ"/><path fill="#333" d="M135-143c-3-34-86-38-87 0 15 53 115 12 119 90S17 21 10-45l28-5c4 36 97 45 98 0-10-56-113-15-118-90-4-57 82-63 122-42 12 7 21 19 24 35" id="aR"/><g id="w"><use transform="matrix(0.030864197530864192,0,0,0.030864197530864192,0,0)" xlink:href="#aL"/><use transform="matrix(0.030864197530864192,0,0,0.030864197530864192,6.1728395061728385,0)" xlink:href="#aG"/><use transform="matrix(0.030864197530864192,0,0,0.030864197530864192,12.345679012345677,0)" xlink:href="#aH"/><use transform="matrix(0.030864197530864192,0,0,0.030864197530864192,15.432098765432096,0)" xlink:href="#aO"/><use transform="matrix(0.030864197530864192,0,0,0.030864197530864192,21.604938271604937,0)" xlink:href="#aP"/><use transform="matrix(0.030864197530864192,0,0,0.030864197530864192,24.04320987654321,0)" xlink:href="#aQ"/><use transform="matrix(0.030864197530864192,0,0,0.030864197530864192,26.48148148148148,0)" xlink:href="#aR"/></g><path fill="#3a414a" d="M33 0v-248h34V0H33" id="aS"/><g id="x"><use transform="matrix(0.06172839506172839,0,0,0.06172839506172839,0,0)" xlink:href="#aS"/><use transform="matrix(0.06172839506172839,0,0,0.06172839506172839,6.172839506172839,0)" xlink:href="#Q"/></g><path fill="#3a414a" d="M210-169c-67 3-38 105-44 169h-31v-121c0-29-5-50-35-48C34-165 62-65 56 0H25l-1-190h30c1 10-1 24 2 32 10-44 99-50 107 0 11-21 27-35 58-36 85-2 47 119 55 194h-31v-121c0-29-5-49-35-48" id="aT"/><path fill="#3a414a" d="M179-190L93 31C79 59 56 82 12 73V49c39 6 53-20 64-50L1-190h34L92-34l54-156h33" id="aU"/><g id="y"><use transform="matrix(0.06172839506172839,0,0,0.06172839506172839,0,0)" xlink:href="#aB"/><use transform="matrix(0.06172839506172839,0,0,0.06172839506172839,18.456790123456788,0)" xlink:href="#J"/><use transform="matrix(0.06172839506172839,0,0,0.06172839506172839,30.80246913580247,0)" xlink:href="#aT"/><use transform="matrix(0.06172839506172839,0,0,0.06172839506172839,49.25925925925925,0)" xlink:href="#P"/><use transform="matrix(0.06172839506172839,0,0,0.06172839506172839,61.60493827160493,0)" xlink:href="#G"/><use transform="matrix(0.06172839506172839,0,0,0.06172839506172839,68.9506172839506,0)" xlink:href="#aU"/></g><path fill="#3a414a" d="M85-194c31 0 48 13 60 33l-1-100h32l1 261h-30c-2-10 0-23-3-31C134-8 116 4 85 4 32 4 16-35 15-94c0-66 23-100 70-100zm9 24c-40 0-46 34-46 75 0 40 6 74 45 74 42 0 51-32 51-76 0-42-9-74-50-73" id="aV"/><g id="z"><use transform="matrix(0.06172839506172839,0,0,0.06172839506172839,0,0)" xlink:href="#F"/><use transform="matrix(0.06172839506172839,0,0,0.06172839506172839,14.814814814814813,0)" xlink:href="#G"/><use transform="matrix(0.06172839506172839,0,0,0.06172839506172839,22.160493827160494,0)" xlink:href="#P"/><use transform="matrix(0.06172839506172839,0,0,0.06172839506172839,34.50617283950617,0)" xlink:href="#aV"/><use transform="matrix(0.06172839506172839,0,0,0.06172839506172839,46.85185185185185,0)" xlink:href="#N"/><use transform="matrix(0.06172839506172839,0,0,0.06172839506172839,59.197530864197525,0)" xlink:href="#I"/><use transform="matrix(0.06172839506172839,0,0,0.06172839506172839,70.30864197530863,0)" xlink:href="#O"/></g><path fill="#3a414a" d="M30-248c118-7 216 8 213 122C240-48 200 0 122 0H30v-248zM63-27c89 8 146-16 146-99s-60-101-146-95v194" id="aW"/><path fill="#3a414a" d="M115-194c53 0 69 39 70 98 0 66-23 100-70 100C84 3 66-7 56-30L54 0H23l1-261h32v101c10-23 28-34 59-34zm-8 174c40 0 45-34 45-75 0-40-5-75-45-74-42 0-51 32-51 76 0 43 10 73 51 73" id="aX"/><path fill="#3a414a" d="M135-143c-3-34-86-38-87 0 15 53 115 12 119 90S17 21 10-45l28-5c4 36 97 45 98 0-10-56-113-15-118-90-4-57 82-63 122-42 12 7 21 19 24 35" id="aY"/><g id="A"><use transform="matrix(0.06172839506172839,0,0,0.06172839506172839,0,0)" xlink:href="#aW"/><use transform="matrix(0.06172839506172839,0,0,0.06172839506172839,15.987654320987653,0)" xlink:href="#L"/><use transform="matrix(0.06172839506172839,0,0,0.06172839506172839,28.333333333333332,0)" xlink:href="#O"/><use transform="matrix(0.06172839506172839,0,0,0.06172839506172839,34.50617283950617,0)" xlink:href="#L"/><use transform="matrix(0.06172839506172839,0,0,0.06172839506172839,46.85185185185185,0)" xlink:href="#aX"/><use transform="matrix(0.06172839506172839,0,0,0.06172839506172839,59.197530864197525,0)" xlink:href="#L"/><use transform="matrix(0.06172839506172839,0,0,0.06172839506172839,71.5432098765432,0)" xlink:href="#aY"/><use transform="matrix(0.06172839506172839,0,0,0.06172839506172839,82.65432098765432,0)" xlink:href="#J"/></g><g id="B"><use transform="matrix(0.023703827160493813,0,0,0.023703827160493813,0,0)" xlink:href="#ah"/><use transform="matrix(0.023703827160493813,0,0,0.023703827160493813,5.688918518518515,0)" xlink:href="#ai"/><use transform="matrix(0.023703827160493813,0,0,0.023703827160493813,9.007454320987648,0)" xlink:href="#ar"/><use transform="matrix(0.023703827160493813,0,0,0.023703827160493813,14.198592469135795,0)" xlink:href="#at"/><use transform="matrix(0.023703827160493813,0,0,0.023703827160493813,19.389730617283938,0)" xlink:href="#ap"/><use transform="matrix(0.023703827160493813,0,0,0.023703827160493813,24.580868765432083,0)" xlink:href="#ak"/><use transform="matrix(0.023703827160493813,0,0,0.023703827160493813,29.321634197530848,0)" xlink:href="#aq"/></g><path fill="#fff" d="M240-174c0 40-23 61-54 70L253 0h-59l-57-94H76V0H24v-248c93 4 217-23 216 74zM76-134c48-2 112 12 112-38 0-48-66-32-112-35v73" id="aZ"/><path fill="#fff" d="M135-194c53 0 70 44 70 98 0 56-19 98-73 100-31 1-45-17-59-34 3 33 2 69 2 105H25l-1-265h48c2 10 0 23 3 31 11-24 29-35 60-35zM114-30c33 0 39-31 40-66 0-38-9-64-40-64-56 0-55 130 0 130" id="ba"/><path fill="#fff" d="M123 10C108 53 80 86 19 72V37c35 8 53-11 59-39L3-190h52l48 148c12-52 28-100 44-148h51" id="bb"/><g id="C"><use transform="matrix(0.023703827160493813,0,0,0.023703827160493813,0,0)" xlink:href="#aZ"/><use transform="matrix(0.023703827160493813,0,0,0.023703827160493813,6.139291234567898,0)" xlink:href="#al"/><use transform="matrix(0.023703827160493813,0,0,0.023703827160493813,10.880056666666661,0)" xlink:href="#ba"/><use transform="matrix(0.023703827160493813,0,0,0.023703827160493813,16.071194814814806,0)" xlink:href="#ar"/><use transform="matrix(0.023703827160493813,0,0,0.023703827160493813,21.26233296296295,0)" xlink:href="#ax"/><use transform="matrix(0.023703827160493813,0,0,0.023703827160493813,26.003098395061713,0)" xlink:href="#aj"/><use transform="matrix(0.023703827160493813,0,0,0.023703827160493813,28.373481111111094,0)" xlink:href="#aq"/><use transform="matrix(0.023703827160493813,0,0,0.023703827160493813,31.194236543209858,0)" xlink:href="#ar"/><use transform="matrix(0.023703827160493813,0,0,0.023703827160493813,36.385374691358,0)" xlink:href="#ai"/><use transform="matrix(0.023703827160493813,0,0,0.023703827160493813,39.70391049382714,0)" xlink:href="#bb"/></g><g id="D"><use transform="matrix(0.06172839506172839,0,0,0.06172839506172839,0,0)" xlink:href="#F"/><use transform="matrix(0.06172839506172839,0,0,0.06172839506172839,14.814814814814813,0)" xlink:href="#G"/><use transform="matrix(0.06172839506172839,0,0,0.06172839506172839,22.160493827160494,0)" xlink:href="#P"/><use transform="matrix(0.06172839506172839,0,0,0.06172839506172839,34.50617283950617,0)" xlink:href="#aV"/><use transform="matrix(0.06172839506172839,0,0,0.06172839506172839,46.85185185185185,0)" xlink:href="#N"/><use transform="matrix(0.06172839506172839,0,0,0.06172839506172839,59.197530864197525,0)" xlink:href="#I"/><use transform="matrix(0.06172839506172839,0,0,0.06172839506172839,70.30864197530863,0)" xlink:href="#O"/></g><g id="E"><use transform="matrix(0.06172839506172839,0,0,0.06172839506172839,0,0)" xlink:href="#K"/><use transform="matrix(0.06172839506172839,0,0,0.06172839506172839,15.987654320987653,0)" xlink:href="#L"/><use transform="matrix(0.06172839506172839,0,0,0.06172839506172839,28.333333333333332,0)" xlink:href="#O"/><use transform="matrix(0.06172839506172839,0,0,0.06172839506172839,34.50617283950617,0)" xlink:href="#L"/><use transform="matrix(0.06172839506172839,0,0,0.06172839506172839,46.85185185185185,0)" xlink:href="#M"/><use transform="matrix(0.06172839506172839,0,0,0.06172839506172839,51.72839506172839,0)" xlink:href="#P"/><use transform="matrix(0.06172839506172839,0,0,0.06172839506172839,64.07407407407408,0)" xlink:href="#aE"/></g></defs></g></svg>